<svg xmlns="http://www.w3.org/2000/svg" xmlns:xlink="http://www.w3.org/1999/xlink" xmlns:lucid="lucid" width="1381" height="877.19"><g transform="translate(-159.5 -325.585)" lucid:page-tab-id="0_0"><path d="M0 0h1760v1360H0z" fill="#fff"/><path d="M220 453.5v35h200v-35" fill="#fff"/><path d="M220 488.5v35h200v-35" fill="#e6e6e6"/><path d="M220 523.5v35h200v-35" fill="#fff"/><path d="M220 558.5v35h200v-35" fill="#e6e6e6"/><path d="M220 593.5v32h200v-32" fill="#fff"/><path d="M220 453.5v-40h200v40" fill="#6db1ff"/><path d="M220 413.5h200v212H220zM220 453.5h200" stroke="#333" fill="none"/><use xlink:href="#a" transform="matrix(1,0,0,1,230,413.5) translate(5 25.15555555555556)"/><use xlink:href="#b" transform="matrix(1,0,0,1,225,456) translate(5 20.155555555555555)"/><use xlink:href="#c" transform="matrix(1,0,0,1,225,491) translate(5 20.155555555555555)"/><use xlink:href="#d" transform="matrix(1,0,0,1,225,526) translate(5 20.155555555555555)"/><use xlink:href="#e" transform="matrix(1,0,0,1,225,561) translate(5 20.155555555555555)"/><use xlink:href="#f" transform="matrix(1,0,0,1,225,596) translate(0 17.1)"/><path d="M540 420v35h200v-35" fill="#fff"/><path d="M540 455v32h200v-32" fill="#e6e6e6"/><path d="M540 487v35h200v-35" fill="#fff"/><path d="M540 522v32h200v-32" fill="#e6e6e6"/><path d="M540 554v35h200v-35" fill="#fff"/><path d="M540 589v35h200v-35" fill="#e6e6e6"/><path d="M540 624v32h200v-32" fill="#fff"/><path d="M540 656v32h200v-32" fill="#e6e6e6"/><path d="M540 420v-40h200v40" fill="#6db1ff"/><path d="M540 380h200v308H540zM540 420h200" stroke="#333" fill="none"/><use xlink:href="#g" transform="matrix(1,0,0,1,550,380) translate(5 25.15555555555556)"/><use xlink:href="#b" transform="matrix(1,0,0,1,545,422.5) translate(5 20.155555555555555)"/><use xlink:href="#h" transform="matrix(1,0,0,1,545,457.5) translate(0 17.1)"/><use xlink:href="#i" transform="matrix(1,0,0,1,545,489.5) translate(5 20.155555555555555)"/><use xlink:href="#j" transform="matrix(1,0,0,1,545,524.5) translate(0 17.1)"/><use xlink:href="#k" transform="matrix(1,0,0,1,545,556.5) translate(5 20.155555555555555)"/><use xlink:href="#l" transform="matrix(1,0,0,1,545,591.5) translate(5 20.155555555555555)"/><use xlink:href="#m" transform="matrix(1,0,0,1,545,626.5) translate(0 17.1)"/><use xlink:href="#f" transform="matrix(1,0,0,1,545,658.5) translate(0 17.1)"/><path d="M1280 595.28v35h200v-35" fill="#fff"/><path d="M1280 630.28v32h200v-32" fill="#e6e6e6"/><path d="M1280 662.28v35h200v-35" fill="#fff"/><path d="M1280 697.28v35h200v-35" fill="#e6e6e6"/><path d="M1280 732.28v32h200v-32" fill="#fff"/><path d="M1280 595.28v-40h200v40" fill="#6db1ff"/><path d="M1280 555.28h200v209h-200zM1280 595.28h200" stroke="#333" fill="none"/><use xlink:href="#n" transform="matrix(1,0,0,1,1290,555.2819569087784) translate(5 25.15555555555556)"/><use xlink:href="#b" transform="matrix(1,0,0,1,1285,597.7819569087784) translate(5 20.155555555555555)"/><use xlink:href="#o" transform="matrix(1,0,0,1,1285,632.7819569087784) translate(0 17.1)"/><use xlink:href="#k" transform="matrix(1,0,0,1,1285,664.7819569087784) translate(5 20.155555555555555)"/><use xlink:href="#e" transform="matrix(1,0,0,1,1285,699.7819569087784) translate(5 20.155555555555555)"/><use xlink:href="#f" transform="matrix(1,0,0,1,1285,734.7819569087784) translate(0 17.1)"/><path d="M1280 981.27v35h200v-35" fill="#fff"/><path d="M1280 1016.27v32h200v-32" fill="#e6e6e6"/><path d="M1280 1048.27v32h200v-32" fill="#fff"/><path d="M1280 1080.27v35h200v-35" fill="#e6e6e6"/><path d="M1280 1115.27v35h200v-35" fill="#fff"/><path d="M1280 1150.27v32h200v-32" fill="#e6e6e6"/><path d="M1280 981.27v-40h200v40" fill="#6db1ff"/><path d="M1280 941.27h200v241h-200zM1280 981.27h200" stroke="#333" fill="none"/><use xlink:href="#p" transform="matrix(1,0,0,1,1290,941.2732137529158) translate(5 25.15555555555556)"/><use xlink:href="#b" transform="matrix(1,0,0,1,1285,983.7732137529158) translate(5 20.155555555555555)"/><use xlink:href="#q" transform="matrix(1,0,0,1,1285,1018.7732137529158) translate(0 17.1)"/><use xlink:href="#r" transform="matrix(1,0,0,1,1285,1050.7732137529158) translate(0 17.1)"/><use xlink:href="#k" transform="matrix(1,0,0,1,1285,1082.7732137529158) translate(5 20.155555555555555)"/><use xlink:href="#e" transform="matrix(1,0,0,1,1285,1117.7732137529158) translate(5 20.155555555555555)"/><use xlink:href="#f" transform="matrix(1,0,0,1,1285,1152.7732137529158) translate(0 17.1)"/><path d="M920 386.08v35h200v-35" fill="#fff"/><path d="M920 421.08v32h200v-32" fill="#e6e6e6"/><path d="M920 453.08v35h200v-35" fill="#fff"/><path d="M920 488.08v35h200v-35" fill="#e6e6e6"/><path d="M920 523.1v32h200v-32" fill="#fff"/><path d="M920 386.08v-40h200v40" fill="#6db1ff"/><path d="M920 346.08h200v209H920zM920 386.08h200" stroke="#333" fill="none"/><use xlink:href="#s" transform="matrix(1,0,0,1,930,346.085) translate(5 25.15555555555556)"/><use xlink:href="#b" transform="matrix(1,0,0,1,925,388.585) translate(5 20.155555555555555)"/><use xlink:href="#t" transform="matrix(1,0,0,1,925,423.585) translate(0 17.1)"/><use xlink:href="#u" transform="matrix(1,0,0,1,925,455.585) translate(5 20.155555555555555)"/><use xlink:href="#e" transform="matrix(1,0,0,1,925,490.585) translate(5 20.155555555555555)"/><use xlink:href="#f" transform="matrix(1,0,0,1,925,525.585) translate(0 17.1)"/><path d="M620 845.77v35h200v-35" fill="#fff"/><path d="M620 880.77v32h200v-32" fill="#e6e6e6"/><path d="M620 912.77v35h200v-35" fill="#fff"/><path d="M620 947.77v35h200v-35" fill="#e6e6e6"/><path d="M620 982.77v32h200v-32" fill="#fff"/><path d="M620 1014.77v32h200v-32" fill="#e6e6e6"/><path d="M620 1046.77v35h200v-35" fill="#fff"/><path d="M620 1081.77v32h200v-32" fill="#e6e6e6"/><path d="M620 845.77v-40h200v40" fill="#6db1ff"/><path d="M620 805.77h200v308H620zM620 845.77h200" stroke="#333" fill="none"/><use xlink:href="#v" transform="matrix(1,0,0,1,630,805.7732137529158) translate(5 25.15555555555556)"/><use xlink:href="#b" transform="matrix(1,0,0,1,625,848.2732137529158) translate(5 20.155555555555555)"/><use xlink:href="#h" transform="matrix(1,0,0,1,625,883.2732137529158) translate(0 17.1)"/><use xlink:href="#w" transform="matrix(1,0,0,1,625,915.2732137529158) translate(5 20.155555555555555)"/><use xlink:href="#x" transform="matrix(1,0,0,1,625,950.2732137529158) translate(5 20.155555555555555)"/><use xlink:href="#y" transform="matrix(1,0,0,1,625,985.2732137529158) translate(0 17.1)"/><use xlink:href="#r" transform="matrix(1,0,0,1,625,1017.2732137529158) translate(0 17.1)"/><use xlink:href="#e" transform="matrix(1,0,0,1,625,1049.2732137529158) translate(5 20.155555555555555)"/><use xlink:href="#f" transform="matrix(1,0,0,1,625,1084.2732137529158) translate(0 17.1)"/><path d="M199.5 471h-8c-6.63 0-12 5.37-12 12v401.77c0 6.63 5.37 12 12 12H580" stroke="#333" fill="none"/><path d="M199.5 461v20M219.5 471h-20" stroke="#333" fill="#fff"/><path d="M619.28 906.77l-20-10 20-10" stroke="#333" fill="#fff" fill-opacity="0"/><path d="M619.28 896.77h-20M599.28 896.77c0 5.53-4.48 10-10 10-5.53 0-10-4.47-10-10 0-5.52 4.47-10 10-10 5.52 0 10 4.48 10 10" stroke="#333" fill="#fff"/><path d="M1259.5 612.78H1062c-6.63 0-12 5.37-12 12v293.5c0 6.62-5.37 12-12 12H860" stroke="#333" fill="none"/><path d="M1259.5 602.78v20M1279.5 612.78h-20" stroke="#333" fill="#fff"/><path d="M820.72 920.27l20 10-20 10" stroke="#333" fill="#fff" fill-opacity="0"/><path d="M820.72 930.27h20M860.72 930.27c0 5.53-4.47 10-10 10-5.52 0-10-4.47-10-10 0-5.52 4.48-10 10-10 5.53 0 10 4.48 10 10" stroke="#333" fill="#fff"/><path d="M1259.5 998.77H860" stroke="#333" fill="none"/><path d="M1259.5 988.77v20M1279.5 998.77h-20" stroke="#333" fill="#fff"/><path d="M820.72 988.77l20 10-20 10" stroke="#333" fill="#fff" fill-opacity="0"/><path d="M820.72 998.77h20M860.72 998.77c0 5.53-4.47 10-10 10-5.52 0-10-4.47-10-10 0-5.52 4.48-10 10-10 5.53 0 10 4.48 10 10" stroke="#333" fill="#fff"/><path d="M899.5 403.58H882c-6.63 0-12 5.38-12 12v539.7c0 5.52-4.48 10-10 10" stroke="#333" fill="none"/><path d="M899.5 393.58v20M919.5 403.58h-20" stroke="#333" fill="#fff"/><path d="M820.72 955.27l20 10-20 10" stroke="#333" fill="#fff" fill-opacity="0"/><path d="M820.72 965.27h20M860.72 965.27c0 5.53-4.47 10-10 10-5.52 0-10-4.47-10-10 0-5.52 4.48-10 10-10 5.53 0 10 4.48 10 10" stroke="#333" fill="#fff"/><path d="M1140.5 403.58h47.5c6.63 0 12 5.38 12 12v218.7c0 6.63 5.37 12 12 12h48.1" stroke="#333" fill="none"/><path d="M1140.5 413.58v-20M1120.5 403.58h20" stroke="#333" fill="#fff"/><path d="M1279.28 656.28l-20-10 20-10" stroke="#333" fill="#fff" fill-opacity="0"/><path d="M1279.28 646.28h-20" stroke="#333" fill="#fff"/><path d="M1500.5 612.78h8c6.63 0 12 5.37 12 12v395.5c0 6.62-5.37 12-12 12h-8.6" stroke="#333" fill="none"/><path d="M1500.5 622.78v-20M1480.5 612.78h20" stroke="#333" fill="#fff"/><path d="M1480.72 1022.27l20 10-20 10" stroke="#333" fill="#fff" fill-opacity="0"/><path d="M1480.72 1032.27h20" stroke="#333" fill="#fff"/><path d="M440.5 471H500" stroke="#333" fill="none"/><path d="M440.5 481v-20M420.5 471h20" stroke="#333" fill="#fff"/><path d="M539.28 481l-20-10 20-10" stroke="#333" fill="#fff" fill-opacity="0"/><path d="M539.28 471h-20M519.28 471c0 5.52-4.48 10-10 10-5.53 0-10-4.48-10-10s4.47-10 10-10c5.52 0 10 4.48 10 10" stroke="#333" fill="#fff"/><path d="M760.5 437.5h69.3c.1 0 .2-.1.2-.2 0-.12.1-.22.2-.22H880" stroke="#333" fill="none"/><path d="M760.5 447.5v-20M740.5 437.5h20" stroke="#333" fill="#fff"/><path d="M919.28 447.08l-20-10 20-10" stroke="#333" fill="#fff" fill-opacity="0"/><path d="M919.28 437.08h-20M899.28 437.08c0 5.53-4.48 10-10 10-5.53 0-10-4.47-10-10 0-5.52 4.47-10 10-10 5.52 0 10 4.48 10 10" stroke="#333" fill="#fff"/><defs><path fill="#333" d="M84 4C-5 8 30-112 23-190h32v120c0 31 7 50 39 49 72-2 45-101 50-169h31l1 190h-30c-1-10 1-25-2-33-11 22-28 36-60 37" id="z"/><path fill="#333" d="M135-143c-3-34-86-38-87 0 15 53 115 12 119 90S17 21 10-45l28-5c4 36 97 45 98 0-10-56-113-15-118-90-4-57 82-63 122-42 12 7 21 19 24 35" id="A"/><path fill="#333" d="M100-194c63 0 86 42 84 106H49c0 40 14 67 53 68 26 1 43-12 49-29l28 8c-11 28-37 45-77 45C44 4 14-33 15-96c1-61 26-98 85-98zm52 81c6-60-76-77-97-28-3 7-6 17-6 28h103" id="B"/><path fill="#333" d="M114-163C36-179 61-72 57 0H25l-1-190h30c1 12-1 29 2 39 6-27 23-49 58-41v29" id="C"/><g id="a"><use transform="matrix(0.04938271604938272,0,0,0.04938271604938272,0,0)" xlink:href="#z"/><use transform="matrix(0.04938271604938272,0,0,0.04938271604938272,9.876543209876544,0)" xlink:href="#A"/><use transform="matrix(0.04938271604938272,0,0,0.04938271604938272,18.765432098765434,0)" xlink:href="#B"/><use transform="matrix(0.04938271604938272,0,0,0.04938271604938272,28.641975308641978,0)" xlink:href="#C"/><use transform="matrix(0.04938271604938272,0,0,0.04938271604938272,34.51851851851852,0)" xlink:href="#A"/></g><path fill="#333" d="M24-231v-30h32v30H24zM24 0v-190h32V0H24" id="D"/><path fill="#333" d="M85-194c31 0 48 13 60 33l-1-100h32l1 261h-30c-2-10 0-23-3-31C134-8 116 4 85 4 32 4 16-35 15-94c0-66 23-100 70-100zm9 24c-40 0-46 34-46 75 0 40 6 74 45 74 42 0 51-32 51-76 0-42-9-74-50-73" id="E"/><g id="b"><use transform="matrix(0.04938271604938272,0,0,0.04938271604938272,0,0)" xlink:href="#D"/><use transform="matrix(0.04938271604938272,0,0,0.04938271604938272,3.901234567901235,0)" xlink:href="#E"/></g><path fill="#333" d="M210-169c-67 3-38 105-44 169h-31v-121c0-29-5-50-35-48C34-165 62-65 56 0H25l-1-190h30c1 10-1 24 2 32 10-44 99-50 107 0 11-21 27-35 58-36 85-2 47 119 55 194h-31v-121c0-29-5-49-35-48" id="F"/><path fill="#333" d="M141-36C126-15 110 5 73 4 37 3 15-17 15-53c-1-64 63-63 125-63 3-35-9-54-41-54-24 1-41 7-42 31l-33-3c5-37 33-52 76-52 45 0 72 20 72 64v82c-1 20 7 32 28 27v20c-31 9-61-2-59-35zM48-53c0 20 12 33 32 33 41-3 63-29 60-74-43 2-92-5-92 41" id="G"/><path fill="#333" d="M24 0v-261h32V0H24" id="H"/><g id="c"><use transform="matrix(0.04938271604938272,0,0,0.04938271604938272,0,0)" xlink:href="#B"/><use transform="matrix(0.04938271604938272,0,0,0.04938271604938272,9.876543209876544,0)" xlink:href="#F"/><use transform="matrix(0.04938271604938272,0,0,0.04938271604938272,24.641975308641978,0)" xlink:href="#G"/><use transform="matrix(0.04938271604938272,0,0,0.04938271604938272,34.51851851851852,0)" xlink:href="#D"/><use transform="matrix(0.04938271604938272,0,0,0.04938271604938272,38.41975308641975,0)" xlink:href="#H"/></g><path fill="#333" d="M117-194c89-4 53 116 60 194h-32v-121c0-31-8-49-39-48C34-167 62-67 57 0H25l-1-190h30c1 10-1 24 2 32 11-22 29-35 61-36" id="I"/><g id="d"><use transform="matrix(0.04938271604938272,0,0,0.04938271604938272,0,0)" xlink:href="#z"/><use transform="matrix(0.04938271604938272,0,0,0.04938271604938272,9.876543209876544,0)" xlink:href="#A"/><use transform="matrix(0.04938271604938272,0,0,0.04938271604938272,18.765432098765434,0)" xlink:href="#B"/><use transform="matrix(0.04938271604938272,0,0,0.04938271604938272,28.641975308641978,0)" xlink:href="#C"/><use transform="matrix(0.04938271604938272,0,0,0.04938271604938272,34.51851851851852,0)" xlink:href="#I"/><use transform="matrix(0.04938271604938272,0,0,0.04938271604938272,44.39506172839506,0)" xlink:href="#G"/><use transform="matrix(0.04938271604938272,0,0,0.04938271604938272,54.27160493827161,0)" xlink:href="#F"/><use transform="matrix(0.04938271604938272,0,0,0.04938271604938272,69.03703703703704,0)" xlink:href="#B"/></g><path fill="#333" d="M96-169c-40 0-48 33-48 73s9 75 48 75c24 0 41-14 43-38l32 2c-6 37-31 61-74 61-59 0-76-41-82-99-10-93 101-131 147-64 4 7 5 14 7 22l-32 3c-4-21-16-35-41-35" id="J"/><path fill="#333" d="M59-47c-2 24 18 29 38 22v24C64 9 27 4 27-40v-127H5v-23h24l9-43h21v43h35v23H59v120" id="K"/><path fill="#333" d="M205 0l-28-72H64L36 0H1l101-248h38L239 0h-34zm-38-99l-47-123c-12 45-31 82-46 123h93" id="L"/><g id="e"><use transform="matrix(0.04938271604938272,0,0,0.04938271604938272,0,0)" xlink:href="#J"/><use transform="matrix(0.04938271604938272,0,0,0.04938271604938272,8.88888888888889,0)" xlink:href="#C"/><use transform="matrix(0.04938271604938272,0,0,0.04938271604938272,14.765432098765434,0)" xlink:href="#B"/><use transform="matrix(0.04938271604938272,0,0,0.04938271604938272,24.641975308641978,0)" xlink:href="#G"/><use transform="matrix(0.04938271604938272,0,0,0.04938271604938272,34.51851851851852,0)" xlink:href="#K"/><use transform="matrix(0.04938271604938272,0,0,0.04938271604938272,39.45679012345679,0)" xlink:href="#B"/><use transform="matrix(0.04938271604938272,0,0,0.04938271604938272,49.333333333333336,0)" xlink:href="#E"/><use transform="matrix(0.04938271604938272,0,0,0.04938271604938272,59.20987654320988,0)" xlink:href="#L"/><use transform="matrix(0.04938271604938272,0,0,0.04938271604938272,71.06172839506173,0)" xlink:href="#K"/></g><path d="M84 4C-5 8 30-112 23-190h32v120c0 31 7 50 39 49 72-2 45-101 50-169h31l1 190h-30c-1-10 1-25-2-33-11 22-28 36-60 37" id="M"/><path d="M115-194c55 1 70 41 70 98S169 2 115 4C84 4 66-9 55-30l1 105H24l-1-265h31l2 30c10-21 28-34 59-34zm-8 174c40 0 45-34 45-75s-6-73-45-74c-42 0-51 32-51 76 0 43 10 73 51 73" id="N"/><path d="M85-194c31 0 48 13 60 33l-1-100h32l1 261h-30c-2-10 0-23-3-31C134-8 116 4 85 4 32 4 16-35 15-94c0-66 23-100 70-100zm9 24c-40 0-46 34-46 75 0 40 6 74 45 74 42 0 51-32 51-76 0-42-9-74-50-73" id="O"/><path d="M141-36C126-15 110 5 73 4 37 3 15-17 15-53c-1-64 63-63 125-63 3-35-9-54-41-54-24 1-41 7-42 31l-33-3c5-37 33-52 76-52 45 0 72 20 72 64v82c-1 20 7 32 28 27v20c-31 9-61-2-59-35zM48-53c0 20 12 33 32 33 41-3 63-29 60-74-43 2-92-5-92 41" id="P"/><path d="M59-47c-2 24 18 29 38 22v24C64 9 27 4 27-40v-127H5v-23h24l9-43h21v43h35v23H59v120" id="Q"/><path d="M100-194c63 0 86 42 84 106H49c0 40 14 67 53 68 26 1 43-12 49-29l28 8c-11 28-37 45-77 45C44 4 14-33 15-96c1-61 26-98 85-98zm52 81c6-60-76-77-97-28-3 7-6 17-6 28h103" id="R"/><path d="M205 0l-28-72H64L36 0H1l101-248h38L239 0h-34zm-38-99l-47-123c-12 45-31 82-46 123h93" id="S"/><g id="f"><use transform="matrix(0.05,0,0,0.05,0,0)" xlink:href="#M"/><use transform="matrix(0.05,0,0,0.05,10,0)" xlink:href="#N"/><use transform="matrix(0.05,0,0,0.05,20,0)" xlink:href="#O"/><use transform="matrix(0.05,0,0,0.05,30,0)" xlink:href="#P"/><use transform="matrix(0.05,0,0,0.05,40,0)" xlink:href="#Q"/><use transform="matrix(0.05,0,0,0.05,45,0)" xlink:href="#R"/><use transform="matrix(0.05,0,0,0.05,55,0)" xlink:href="#O"/><use transform="matrix(0.05,0,0,0.05,65,0)" xlink:href="#S"/><use transform="matrix(0.05,0,0,0.05,77,0)" xlink:href="#Q"/></g><g id="g"><use transform="matrix(0.04938271604938272,0,0,0.04938271604938272,0,0)" xlink:href="#G"/><use transform="matrix(0.04938271604938272,0,0,0.04938271604938272,9.876543209876544,0)" xlink:href="#C"/><use transform="matrix(0.04938271604938272,0,0,0.04938271604938272,15.753086419753087,0)" xlink:href="#K"/><use transform="matrix(0.04938271604938272,0,0,0.04938271604938272,20.69135802469136,0)" xlink:href="#D"/><use transform="matrix(0.04938271604938272,0,0,0.04938271604938272,24.592592592592595,0)" xlink:href="#J"/><use transform="matrix(0.04938271604938272,0,0,0.04938271604938272,33.48148148148148,0)" xlink:href="#H"/><use transform="matrix(0.04938271604938272,0,0,0.04938271604938272,37.382716049382715,0)" xlink:href="#B"/><use transform="matrix(0.04938271604938272,0,0,0.04938271604938272,47.25925925925926,0)" xlink:href="#A"/></g><path d="M24-231v-30h32v30H24zM24 0v-190h32V0H24" id="T"/><path d="M-5 72V49h209v23H-5" id="U"/><path d="M135-143c-3-34-86-38-87 0 15 53 115 12 119 90S17 21 10-45l28-5c4 36 97 45 98 0-10-56-113-15-118-90-4-57 82-63 122-42 12 7 21 19 24 35" id="V"/><path d="M114-163C36-179 61-72 57 0H25l-1-190h30c1 12-1 29 2 39 6-27 23-49 58-41v29" id="W"/><g id="h"><use transform="matrix(0.05,0,0,0.05,0,0)" xlink:href="#T"/><use transform="matrix(0.05,0,0,0.05,3.95,0)" xlink:href="#O"/><use transform="matrix(0.05,0,0,0.05,13.949999999999998,0)" xlink:href="#U"/><use transform="matrix(0.05,0,0,0.05,23.95,0)" xlink:href="#M"/><use transform="matrix(0.05,0,0,0.05,33.95,0)" xlink:href="#V"/><use transform="matrix(0.05,0,0,0.05,42.95,0)" xlink:href="#R"/><use transform="matrix(0.05,0,0,0.05,52.95,0)" xlink:href="#W"/></g><g id="i"><use transform="matrix(0.04938271604938272,0,0,0.04938271604938272,0,0)" xlink:href="#K"/><use transform="matrix(0.04938271604938272,0,0,0.04938271604938272,4.938271604938272,0)" xlink:href="#D"/><use transform="matrix(0.04938271604938272,0,0,0.04938271604938272,8.839506172839506,0)" xlink:href="#K"/><use transform="matrix(0.04938271604938272,0,0,0.04938271604938272,13.777777777777779,0)" xlink:href="#H"/><use transform="matrix(0.04938271604938272,0,0,0.04938271604938272,17.679012345679013,0)" xlink:href="#B"/></g><path d="M108 0H70L1-190h34L89-25l56-165h34" id="X"/><path d="M206 0h-36l-40-164L89 0H53L-1-190h32L70-26l43-164h34l41 164 42-164h31" id="Y"/><g id="j"><use transform="matrix(0.05,0,0,0.05,0,0)" xlink:href="#N"/><use transform="matrix(0.05,0,0,0.05,10,0)" xlink:href="#W"/><use transform="matrix(0.05,0,0,0.05,15.949999999999998,0)" xlink:href="#R"/><use transform="matrix(0.05,0,0,0.05,25.950000000000003,0)" xlink:href="#X"/><use transform="matrix(0.05,0,0,0.05,34.95,0)" xlink:href="#T"/><use transform="matrix(0.05,0,0,0.05,38.900000000000006,0)" xlink:href="#R"/><use transform="matrix(0.05,0,0,0.05,48.900000000000006,0)" xlink:href="#Y"/></g><path fill="#333" d="M100-194c62-1 85 37 85 99 1 63-27 99-86 99S16-35 15-95c0-66 28-99 85-99zM99-20c44 1 53-31 53-75 0-43-8-75-51-75s-53 32-53 75 10 74 51 75" id="Z"/><g id="k"><use transform="matrix(0.04938271604938272,0,0,0.04938271604938272,0,0)" xlink:href="#J"/><use transform="matrix(0.04938271604938272,0,0,0.04938271604938272,8.88888888888889,0)" xlink:href="#Z"/><use transform="matrix(0.04938271604938272,0,0,0.04938271604938272,18.765432098765434,0)" xlink:href="#I"/><use transform="matrix(0.04938271604938272,0,0,0.04938271604938272,28.641975308641978,0)" xlink:href="#K"/><use transform="matrix(0.04938271604938272,0,0,0.04938271604938272,33.580246913580254,0)" xlink:href="#B"/><use transform="matrix(0.04938271604938272,0,0,0.04938271604938272,43.4567901234568,0)" xlink:href="#I"/><use transform="matrix(0.04938271604938272,0,0,0.04938271604938272,53.333333333333336,0)" xlink:href="#K"/></g><path fill="#333" d="M177-190C167-65 218 103 67 71c-23-6-38-20-44-43l32-5c15 47 100 32 89-28v-30C133-14 115 1 83 1 29 1 15-40 15-95c0-56 16-97 71-98 29-1 48 16 59 35 1-10 0-23 2-32h30zM94-22c36 0 50-32 50-73 0-42-14-75-50-75-39 0-46 34-46 75s6 73 46 73" id="aa"/><path fill="#333" d="M30-248c87 1 191-15 191 75 0 78-77 80-158 76V0H30v-248zm33 125c57 0 124 11 124-50 0-59-68-47-124-48v98" id="ab"/><path fill="#333" d="M108 0H70L1-190h34L89-25l56-165h34" id="ac"/><path fill="#333" d="M206 0h-36l-40-164L89 0H53L-1-190h32L70-26l43-164h34l41 164 42-164h31" id="ad"/><g id="l"><use transform="matrix(0.04938271604938272,0,0,0.04938271604938272,0,0)" xlink:href="#D"/><use transform="matrix(0.04938271604938272,0,0,0.04938271604938272,3.901234567901235,0)" xlink:href="#F"/><use transform="matrix(0.04938271604938272,0,0,0.04938271604938272,18.666666666666668,0)" xlink:href="#aa"/><use transform="matrix(0.04938271604938272,0,0,0.04938271604938272,28.543209876543212,0)" xlink:href="#ab"/><use transform="matrix(0.04938271604938272,0,0,0.04938271604938272,40.39506172839506,0)" xlink:href="#C"/><use transform="matrix(0.04938271604938272,0,0,0.04938271604938272,46.27160493827161,0)" xlink:href="#B"/><use transform="matrix(0.04938271604938272,0,0,0.04938271604938272,56.14814814814815,0)" xlink:href="#ac"/><use transform="matrix(0.04938271604938272,0,0,0.04938271604938272,65.03703703703704,0)" xlink:href="#D"/><use transform="matrix(0.04938271604938272,0,0,0.04938271604938272,68.93827160493828,0)" xlink:href="#B"/><use transform="matrix(0.04938271604938272,0,0,0.04938271604938272,78.81481481481482,0)" xlink:href="#ad"/></g><path d="M96-169c-40 0-48 33-48 73s9 75 48 75c24 0 41-14 43-38l32 2c-6 37-31 61-74 61-59 0-76-41-82-99-10-93 101-131 147-64 4 7 5 14 7 22l-32 3c-4-21-16-35-41-35" id="ae"/><g id="m"><use transform="matrix(0.05,0,0,0.05,0,0)" xlink:href="#ae"/><use transform="matrix(0.05,0,0,0.05,9,0)" xlink:href="#W"/><use transform="matrix(0.05,0,0,0.05,14.949999999999998,0)" xlink:href="#R"/><use transform="matrix(0.05,0,0,0.05,24.95,0)" xlink:href="#P"/><use transform="matrix(0.05,0,0,0.05,34.95,0)" xlink:href="#Q"/><use transform="matrix(0.05,0,0,0.05,39.95,0)" xlink:href="#R"/><use transform="matrix(0.05,0,0,0.05,49.95,0)" xlink:href="#O"/><use transform="matrix(0.05,0,0,0.05,59.95,0)" xlink:href="#S"/><use transform="matrix(0.05,0,0,0.05,71.95,0)" xlink:href="#Q"/></g><path fill="#333" d="M145-31C134-9 116 4 85 4 32 4 16-35 15-94c0-59 17-99 70-100 32-1 48 14 60 33 0-11-1-24 2-32h30l-1 268h-32zM93-21c41 0 51-33 51-76s-8-73-50-73c-40 0-46 35-46 75s5 74 45 74" id="af"/><g id="n"><use transform="matrix(0.04938271604938272,0,0,0.04938271604938272,0,0)" xlink:href="#af"/><use transform="matrix(0.04938271604938272,0,0,0.04938271604938272,9.876543209876544,0)" xlink:href="#z"/><use transform="matrix(0.04938271604938272,0,0,0.04938271604938272,19.75308641975309,0)" xlink:href="#B"/><use transform="matrix(0.04938271604938272,0,0,0.04938271604938272,29.629629629629633,0)" xlink:href="#A"/><use transform="matrix(0.04938271604938272,0,0,0.04938271604938272,38.51851851851852,0)" xlink:href="#K"/><use transform="matrix(0.04938271604938272,0,0,0.04938271604938272,43.45679012345679,0)" xlink:href="#D"/><use transform="matrix(0.04938271604938272,0,0,0.04938271604938272,47.358024691358025,0)" xlink:href="#Z"/><use transform="matrix(0.04938271604938272,0,0,0.04938271604938272,57.23456790123457,0)" xlink:href="#I"/><use transform="matrix(0.04938271604938272,0,0,0.04938271604938272,67.11111111111111,0)" xlink:href="#A"/></g><path d="M145-31C134-9 116 4 85 4 32 4 16-35 15-94c0-59 17-99 70-100 32-1 48 14 60 33 0-11-1-24 2-32h30l-1 268h-32zM93-21c41 0 51-33 51-76s-8-73-50-73c-40 0-46 35-46 75s5 74 45 74" id="ag"/><path d="M9 0v-24l116-142H16v-24h144v24L44-24h123V0H9" id="ah"/><g id="o"><use transform="matrix(0.05,0,0,0.05,0,0)" xlink:href="#T"/><use transform="matrix(0.05,0,0,0.05,3.95,0)" xlink:href="#O"/><use transform="matrix(0.05,0,0,0.05,13.949999999999998,0)" xlink:href="#U"/><use transform="matrix(0.05,0,0,0.05,23.95,0)" xlink:href="#ag"/><use transform="matrix(0.05,0,0,0.05,33.95,0)" xlink:href="#M"/><use transform="matrix(0.05,0,0,0.05,43.95,0)" xlink:href="#T"/><use transform="matrix(0.05,0,0,0.05,47.900000000000006,0)" xlink:href="#ah"/></g><g id="p"><use transform="matrix(0.04938271604938272,0,0,0.04938271604938272,0,0)" xlink:href="#G"/><use transform="matrix(0.04938271604938272,0,0,0.04938271604938272,9.876543209876544,0)" xlink:href="#I"/><use transform="matrix(0.04938271604938272,0,0,0.04938271604938272,19.75308641975309,0)" xlink:href="#A"/><use transform="matrix(0.04938271604938272,0,0,0.04938271604938272,28.641975308641978,0)" xlink:href="#ad"/><use transform="matrix(0.04938271604938272,0,0,0.04938271604938272,41.4320987654321,0)" xlink:href="#B"/><use transform="matrix(0.04938271604938272,0,0,0.04938271604938272,51.308641975308646,0)" xlink:href="#C"/><use transform="matrix(0.04938271604938272,0,0,0.04938271604938272,57.18518518518519,0)" xlink:href="#A"/></g><path d="M100-194c62-1 85 37 85 99 1 63-27 99-86 99S16-35 15-95c0-66 28-99 85-99zM99-20c44 1 53-31 53-75 0-43-8-75-51-75s-53 32-53 75 10 74 51 75" id="ai"/><path d="M117-194c89-4 53 116 60 194h-32v-121c0-31-8-49-39-48C34-167 62-67 57 0H25l-1-190h30c1 10-1 24 2 32 11-22 29-35 61-36" id="aj"/><g id="q"><use transform="matrix(0.05,0,0,0.05,0,0)" xlink:href="#T"/><use transform="matrix(0.05,0,0,0.05,3.95,0)" xlink:href="#O"/><use transform="matrix(0.05,0,0,0.05,13.949999999999998,0)" xlink:href="#U"/><use transform="matrix(0.05,0,0,0.05,23.95,0)" xlink:href="#ag"/><use transform="matrix(0.05,0,0,0.05,33.95,0)" xlink:href="#M"/><use transform="matrix(0.05,0,0,0.05,43.95,0)" xlink:href="#R"/><use transform="matrix(0.05,0,0,0.05,53.95,0)" xlink:href="#V"/><use transform="matrix(0.05,0,0,0.05,62.95,0)" xlink:href="#Q"/><use transform="matrix(0.05,0,0,0.05,67.95,0)" xlink:href="#T"/><use transform="matrix(0.05,0,0,0.05,71.9,0)" xlink:href="#ai"/><use transform="matrix(0.05,0,0,0.05,81.9,0)" xlink:href="#aj"/></g><path d="M137 0h-34L2-248h35l83 218 83-218h36" id="ak"/><path d="M24 0v-261h32V0H24" id="al"/><g id="r"><use transform="matrix(0.05,0,0,0.05,0,0)" xlink:href="#T"/><use transform="matrix(0.05,0,0,0.05,3.95,0)" xlink:href="#V"/><use transform="matrix(0.05,0,0,0.05,12.949999999999998,0)" xlink:href="#ak"/><use transform="matrix(0.05,0,0,0.05,23.6,0)" xlink:href="#P"/><use transform="matrix(0.05,0,0,0.05,33.6,0)" xlink:href="#al"/><use transform="matrix(0.05,0,0,0.05,37.550000000000004,0)" xlink:href="#T"/><use transform="matrix(0.05,0,0,0.05,41.50000000000001,0)" xlink:href="#O"/></g><path fill="#333" d="M9 0v-24l116-142H16v-24h144v24L44-24h123V0H9" id="am"/><g id="s"><use transform="matrix(0.04938271604938272,0,0,0.04938271604938272,0,0)" xlink:href="#af"/><use transform="matrix(0.04938271604938272,0,0,0.04938271604938272,9.876543209876544,0)" xlink:href="#z"/><use transform="matrix(0.04938271604938272,0,0,0.04938271604938272,19.75308641975309,0)" xlink:href="#D"/><use transform="matrix(0.04938271604938272,0,0,0.04938271604938272,23.654320987654323,0)" xlink:href="#am"/></g><g id="t"><use transform="matrix(0.05,0,0,0.05,0,0)" xlink:href="#T"/><use transform="matrix(0.05,0,0,0.05,3.95,0)" xlink:href="#O"/><use transform="matrix(0.05,0,0,0.05,13.949999999999998,0)" xlink:href="#U"/><use transform="matrix(0.05,0,0,0.05,23.95,0)" xlink:href="#P"/><use transform="matrix(0.05,0,0,0.05,33.95,0)" xlink:href="#W"/><use transform="matrix(0.05,0,0,0.05,39.900000000000006,0)" xlink:href="#Q"/><use transform="matrix(0.05,0,0,0.05,44.900000000000006,0)" xlink:href="#T"/><use transform="matrix(0.05,0,0,0.05,48.85000000000001,0)" xlink:href="#ae"/><use transform="matrix(0.05,0,0,0.05,57.85,0)" xlink:href="#al"/><use transform="matrix(0.05,0,0,0.05,61.80000000000001,0)" xlink:href="#R"/></g><g id="u"><use transform="matrix(0.04938271604938272,0,0,0.04938271604938272,0,0)" xlink:href="#K"/><use transform="matrix(0.04938271604938272,0,0,0.04938271604938272,4.938271604938272,0)" xlink:href="#D"/><use transform="matrix(0.04938271604938272,0,0,0.04938271604938272,8.839506172839506,0)" xlink:href="#K"/><use transform="matrix(0.04938271604938272,0,0,0.04938271604938272,13.777777777777779,0)" xlink:href="#D"/><use transform="matrix(0.04938271604938272,0,0,0.04938271604938272,17.679012345679013,0)" xlink:href="#H"/><use transform="matrix(0.04938271604938272,0,0,0.04938271604938272,21.580246913580247,0)" xlink:href="#B"/></g><path fill="#333" d="M-5 72V49h209v23H-5" id="an"/><g id="v"><use transform="matrix(0.04938271604938272,0,0,0.04938271604938272,0,0)" xlink:href="#z"/><use transform="matrix(0.04938271604938272,0,0,0.04938271604938272,9.876543209876544,0)" xlink:href="#A"/><use transform="matrix(0.04938271604938272,0,0,0.04938271604938272,18.765432098765434,0)" xlink:href="#B"/><use transform="matrix(0.04938271604938272,0,0,0.04938271604938272,28.641975308641978,0)" xlink:href="#C"/><use transform="matrix(0.04938271604938272,0,0,0.04938271604938272,34.51851851851852,0)" xlink:href="#an"/><use transform="matrix(0.04938271604938272,0,0,0.04938271604938272,44.39506172839506,0)" xlink:href="#G"/><use transform="matrix(0.04938271604938272,0,0,0.04938271604938272,54.27160493827161,0)" xlink:href="#I"/><use transform="matrix(0.04938271604938272,0,0,0.04938271604938272,64.14814814814815,0)" xlink:href="#A"/><use transform="matrix(0.04938271604938272,0,0,0.04938271604938272,73.03703703703704,0)" xlink:href="#ad"/><use transform="matrix(0.04938271604938272,0,0,0.04938271604938272,85.82716049382717,0)" xlink:href="#B"/><use transform="matrix(0.04938271604938272,0,0,0.04938271604938272,95.70370370370371,0)" xlink:href="#C"/><use transform="matrix(0.04938271604938272,0,0,0.04938271604938272,101.58024691358025,0)" xlink:href="#A"/></g><g id="w"><use transform="matrix(0.04938271604938272,0,0,0.04938271604938272,0,0)" xlink:href="#D"/><use transform="matrix(0.04938271604938272,0,0,0.04938271604938272,3.901234567901235,0)" xlink:href="#E"/><use transform="matrix(0.04938271604938272,0,0,0.04938271604938272,13.777777777777779,0)" xlink:href="#an"/><use transform="matrix(0.04938271604938272,0,0,0.04938271604938272,23.654320987654323,0)" xlink:href="#af"/><use transform="matrix(0.04938271604938272,0,0,0.04938271604938272,33.53086419753087,0)" xlink:href="#z"/><use transform="matrix(0.04938271604938272,0,0,0.04938271604938272,43.40740740740741,0)" xlink:href="#B"/><use transform="matrix(0.04938271604938272,0,0,0.04938271604938272,53.283950617283956,0)" xlink:href="#A"/><use transform="matrix(0.04938271604938272,0,0,0.04938271604938272,62.17283950617284,0)" xlink:href="#K"/><use transform="matrix(0.04938271604938272,0,0,0.04938271604938272,67.11111111111111,0)" xlink:href="#D"/><use transform="matrix(0.04938271604938272,0,0,0.04938271604938272,71.01234567901236,0)" xlink:href="#Z"/><use transform="matrix(0.04938271604938272,0,0,0.04938271604938272,80.8888888888889,0)" xlink:href="#I"/></g><g id="x"><use transform="matrix(0.04938271604938272,0,0,0.04938271604938272,0,0)" xlink:href="#D"/><use transform="matrix(0.04938271604938272,0,0,0.04938271604938272,3.901234567901235,0)" xlink:href="#E"/><use transform="matrix(0.04938271604938272,0,0,0.04938271604938272,13.777777777777779,0)" xlink:href="#an"/><use transform="matrix(0.04938271604938272,0,0,0.04938271604938272,23.654320987654323,0)" xlink:href="#af"/><use transform="matrix(0.04938271604938272,0,0,0.04938271604938272,33.53086419753087,0)" xlink:href="#z"/><use transform="matrix(0.04938271604938272,0,0,0.04938271604938272,43.40740740740741,0)" xlink:href="#D"/><use transform="matrix(0.04938271604938272,0,0,0.04938271604938272,47.308641975308646,0)" xlink:href="#am"/></g><g id="y"><use transform="matrix(0.05,0,0,0.05,0,0)" xlink:href="#T"/><use transform="matrix(0.05,0,0,0.05,3.95,0)" xlink:href="#O"/><use transform="matrix(0.05,0,0,0.05,13.949999999999998,0)" xlink:href="#U"/><use transform="matrix(0.05,0,0,0.05,23.95,0)" xlink:href="#P"/><use transform="matrix(0.05,0,0,0.05,33.95,0)" xlink:href="#aj"/><use transform="matrix(0.05,0,0,0.05,43.95,0)" xlink:href="#V"/><use transform="matrix(0.05,0,0,0.05,52.95,0)" xlink:href="#Y"/><use transform="matrix(0.05,0,0,0.05,65.9,0)" xlink:href="#R"/><use transform="matrix(0.05,0,0,0.05,75.9,0)" xlink:href="#W"/></g></defs></g></svg>